<svg width="50" height="50" viewBox="0 0 50 50" fill="none" xmlns="http://www.w3.org/2000/svg">
<g clip-path="url(#clip0)">
<path d="M32.4483 17.8714H17.5282C17.212 17.8714 16.9087 17.997 16.6851 18.2206C16.4615 18.4442 16.3359 18.7474 16.3359 19.0636C16.3359 19.3799 16.4615 19.6831 16.6851 19.9067C16.9087 20.1303 17.212 20.2559 17.5282 20.2559H32.4483C32.7645 20.2559 33.0678 20.1303 33.2914 19.9067C33.515 19.6831 33.6406 19.3799 33.6406 19.0636C33.6406 18.7474 33.515 18.4442 33.2914 18.2206C33.0678 17.997 32.7645 17.8714 32.4483 17.8714V17.8714Z" fill="#333333"/>
<path d="M32.4483 23.492H17.5282C17.212 23.492 16.9087 23.6176 16.6851 23.8412C16.4615 24.0648 16.3359 24.3681 16.3359 24.6843C16.3359 25.0005 16.4615 25.3037 16.6851 25.5273C16.9087 25.7509 17.212 25.8765 17.5282 25.8765H32.4483C32.7645 25.8765 33.0678 25.7509 33.2914 25.5273C33.515 25.3037 33.6406 25.0005 33.6406 24.6843C33.6406 24.3681 33.515 24.0648 33.2914 23.8412C33.0678 23.6176 32.7645 23.492 32.4483 23.492V23.492Z" fill="#333333"/>
<path d="M33.6406 30.3049C33.6406 29.9887 33.515 29.6855 33.2914 29.4619C33.0678 29.2383 32.7645 29.1127 32.4483 29.1127H17.5282C17.212 29.1127 16.9087 29.2383 16.6851 29.4619C16.4615 29.6855 16.3359 29.9887 16.3359 30.3049C16.3359 30.6211 16.4615 30.9244 16.6851 31.148C16.9087 31.3716 17.212 31.4972 17.5282 31.4972H32.4483C32.7645 31.4972 33.0678 31.3716 33.2914 31.148C33.515 30.9244 33.6406 30.6211 33.6406 30.3049V30.3049Z" fill="#333333"/>
</g>
<defs>
<clipPath id="clip0">
<rect width="49.3685" height="49.3685" fill="white" transform="translate(7.95605 7.6521) scale(0.69)"/>
</clipPath>
</defs>
</svg>
